<svg width="20" height="19" viewBox="0 0 20 19" fill="none" xmlns="http://www.w3.org/2000/svg">
<path d="M9.59984 0C4.29806 0 0 4.13543 0 9.23633C0 14.3372 4.29806 18.473 9.59984 18.473C14.9016 18.473 19.2 14.3372 19.2 9.23633C19.2 4.13543 14.9016 0 9.59984 0ZM13.7501 10.9931H9.68016C9.6664 10.9931 9.6536 10.9899 9.63997 10.9894C9.62634 10.99 9.6136 10.9931 9.59978 10.9931C9.23311 10.9931 8.93583 10.707 8.93583 10.3543V3.83314C8.93583 3.48036 9.23311 3.19434 9.59978 3.19434C9.96644 3.19434 10.2637 3.48036 10.2637 3.83314V9.71546H13.7499C14.1165 9.71546 14.4138 10.0015 14.4138 10.3543C14.4138 10.707 14.1168 10.9931 13.7501 10.9931Z" fill="#225196"/>
</svg>
