<svg width="20" height="19" viewBox="0 0 20 19" fill="none" xmlns="http://www.w3.org/2000/svg">
<mask id="mask0" mask-type="alpha" maskUnits="userSpaceOnUse" x="0" y="0" width="20" height="19">
<path d="M18.6842 8.03564C18.6838 8.03522 18.6834 8.0348 18.6829 8.03438L10.85 0.498404C10.5162 0.177035 10.0723 0 9.60012 0C9.12795 0 8.68406 0.176894 8.35004 0.498263L0.521264 8.03043C0.518627 8.03297 0.51599 8.03564 0.513353 8.03818C-0.172263 8.70164 -0.171091 9.77809 0.516723 10.4399C0.830964 10.7423 1.246 10.9175 1.68974 10.9359C1.70776 10.9376 1.72593 10.9384 1.74424 10.9384H2.05643V16.4844C2.05643 17.5819 2.9845 18.4748 4.12544 18.4748H7.18991C7.50049 18.4748 7.75247 18.2325 7.75247 17.9335V13.5855C7.75247 13.0847 8.17585 12.6773 8.69636 12.6773H10.5039C11.0244 12.6773 11.4478 13.0847 11.4478 13.5855V17.9335C11.4478 18.2325 11.6996 18.4748 12.0103 18.4748H15.0748C16.2157 18.4748 17.1438 17.5819 17.1438 16.4844V10.9384H17.4333C17.9053 10.9384 18.3492 10.7615 18.6834 10.4401C19.3719 9.77724 19.3722 8.69896 18.6842 8.03564Z" fill="black"/>
</mask>
<g mask="url(#mask0)">
<path d="M18.6842 8.03564C18.6838 8.03522 18.6834 8.0348 18.6829 8.03438L10.85 0.498404C10.5162 0.177035 10.0723 0 9.60012 0C9.12795 0 8.68406 0.176894 8.35004 0.498263L0.521264 8.03043C0.518627 8.03297 0.51599 8.03564 0.513353 8.03818C-0.172263 8.70164 -0.171091 9.77809 0.516723 10.4399C0.830964 10.7423 1.246 10.9175 1.68974 10.9359C1.70776 10.9376 1.72593 10.9384 1.74424 10.9384H2.05643V16.4844C2.05643 17.5819 2.9845 18.4748 4.12544 18.4748H7.18991C7.50049 18.4748 7.75247 18.2325 7.75247 17.9335V13.5855C7.75247 13.0847 8.17585 12.6773 8.69636 12.6773H10.5039C11.0244 12.6773 11.4478 13.0847 11.4478 13.5855V17.9335C11.4478 18.2325 11.6996 18.4748 12.0103 18.4748H15.0748C16.2157 18.4748 17.1438 17.5819 17.1438 16.4844V10.9384H17.4333C17.9053 10.9384 18.3492 10.7615 18.6834 10.4401C19.3719 9.77724 19.3722 8.69896 18.6842 8.03564Z" fill="#225196"/>
</g>
</svg>
