<svg width="17" height="19" viewBox="0 0 17 19" fill="none" xmlns="http://www.w3.org/2000/svg">
<path d="M7.88812 8.8985C9.15871 8.8985 10.2589 8.46004 11.1579 7.59497C12.0569 6.73004 12.5126 5.67174 12.5126 4.44911C12.5126 3.2269 12.0569 2.16846 11.1578 1.30325C10.2586 0.438456 9.15857 0 7.88812 0C6.61739 0 5.51745 0.438456 4.61849 1.30339C3.71953 2.16832 3.26367 3.22676 3.26367 4.44911C3.26367 5.67174 3.71953 6.73018 4.61863 7.59511C5.51774 8.4599 6.61783 8.8985 7.88812 8.8985Z" fill="#225196"/>
<path d="M15.9797 14.2047C15.9538 13.8447 15.9013 13.4521 15.8241 13.0375C15.7462 12.6197 15.6459 12.2248 15.5258 11.8639C15.4017 11.4908 15.2329 11.1224 15.0243 10.7694C14.8078 10.4029 14.5535 10.0838 14.2682 9.82128C13.9698 9.5466 13.6045 9.32575 13.182 9.16466C12.761 9.00442 12.2945 8.92324 11.7954 8.92324C11.5994 8.92324 11.4099 9.00061 11.0438 9.22991C10.8185 9.37127 10.555 9.53476 10.2609 9.71558C10.0093 9.86977 9.66862 10.0142 9.24778 10.145C8.83718 10.2728 8.42029 10.3377 8.00882 10.3377C7.59735 10.3377 7.18061 10.2728 6.76957 10.145C6.34917 10.0144 6.00845 9.86991 5.75723 9.71572C5.46587 9.53659 5.2022 9.37311 4.97354 9.22977C4.60792 9.00047 4.41823 8.9231 4.22223 8.9231C3.72302 8.9231 3.25661 9.00442 2.83577 9.1648C2.4136 9.32561 2.04813 9.54646 1.74945 9.82143C1.46425 10.0841 1.2098 10.4031 0.993596 10.7694C0.78515 11.1224 0.616401 11.4907 0.492184 11.864C0.372214 12.225 0.271873 12.6197 0.193944 13.0375C0.116747 13.4515 0.0643061 13.8443 0.0383786 14.2051C0.0128905 14.5586 0 14.9254 0 15.296C0 16.2603 0.318601 17.0409 0.946867 17.6166C1.56737 18.1847 2.38841 18.473 3.38684 18.473H12.6317C13.6301 18.473 14.4509 18.1849 15.0715 17.6166C15.6999 17.0413 16.0185 16.2605 16.0185 15.2958C16.0184 14.9236 16.0053 14.5565 15.9797 14.2047Z" fill="#225196"/>
</svg>
